# xmcd CD database file
#
# Track frame offsets:
#	150
#	53007
#	78619
#	136107
#	150919
#	177357
#
# Disc length: 3770 seconds
#
# Revision: 0
# Processed by: cddbd v1.5.2PL0 Copyright (c) Steve Scherf et al.
# Submitted via: CDex 1.70beta2
#
DISCID=3e0eb806
DTITLE=Miles Davis - Live In Vienna 1973
DYEAR=2009
DGENRE=Jazz
TTITLE0=Turnaroundphrase
TTITLE1=Tune in 5
TTITLE2=Ife
TTITLE3=Right Off
TTITLE4=Funk
TTITLE5=Calypso Frelimo
EXTD=YEAR: 2009
EXTT0=
EXTT1=
EXTT2=
EXTT3=
EXTT4=
EXTT5=
PLAYORDER=
